<?xml version="1.0" encoding="UTF-8" standalone="no"?>
<!-- Created with Inkscape (http://www.inkscape.org/) -->

<svg
   xmlns:osb="http://www.openswatchbook.org/uri/2009/osb"
   xmlns:dc="http://purl.org/dc/elements/1.1/"
   xmlns:cc="http://creativecommons.org/ns#"
   xmlns:rdf="http://www.w3.org/1999/02/22-rdf-syntax-ns#"
   xmlns:svg="http://www.w3.org/2000/svg"
   xmlns="http://www.w3.org/2000/svg"
   xmlns:xlink="http://www.w3.org/1999/xlink"
   xmlns:sodipodi="http://sodipodi.sourceforge.net/DTD/sodipodi-0.dtd"
   xmlns:inkscape="http://www.inkscape.org/namespaces/inkscape"
   width="374"
   height="280"
   id="svg3180"
   version="1.1"
   inkscape:version="0.48.3.1 r9886"
   sodipodi:docname="Location-4.svg">
  <defs
     id="defs3182">
    <radialGradient
       inkscape:collect="always"
       xlink:href="#linearGradient5241"
       id="radialGradient5815"
       gradientUnits="userSpaceOnUse"
       gradientTransform="matrix(1.0422926,0,0,0.97109083,721.31999,-105.18378)"
       cx="-213.17601"
       cy="399.43173"
       fx="-213.17601"
       fy="399.43173"
       r="159.16766" />
    <linearGradient
       id="linearGradient5241">
      <stop
         style="stop-color:#000000;stop-opacity:0;"
         offset="0"
         id="stop5243" />
      <stop
         style="stop-color:#000000;stop-opacity:0;"
         offset="1"
         id="stop5245" />
    </linearGradient>
    <linearGradient
       inkscape:collect="always"
       xlink:href="#linearGradient5249"
       id="linearGradient5817"
       gradientUnits="userSpaceOnUse"
       gradientTransform="matrix(1.0243086,0,0,1.0243086,719.66744,-141.98218)"
       spreadMethod="pad"
       x1="-631.43213"
       y1="406.10202"
       x2="-340.17889"
       y2="406.10202" />
    <linearGradient
       id="linearGradient5249"
       osb:paint="gradient">
      <stop
         style="stop-color:#000000;stop-opacity:0;"
         offset="0"
         id="stop5251" />
      <stop
         style="stop-color:#000000;stop-opacity:0;"
         offset="1"
         id="stop5253" />
    </linearGradient>
    <radialGradient
       inkscape:collect="always"
       xlink:href="#linearGradient5363"
       id="radialGradient5819"
       gradientUnits="userSpaceOnUse"
       gradientTransform="matrix(1,0,0,1.0079376,725.5349,-128.13927)"
       cx="-355.68161"
       cy="403.63623"
       fx="-355.68161"
       fy="403.63623"
       r="150.89131" />
    <linearGradient
       inkscape:collect="always"
       id="linearGradient5363">
      <stop
         style="stop-color:#000000;stop-opacity:1;"
         offset="0"
         id="stop5365" />
      <stop
         style="stop-color:#000000;stop-opacity:0;"
         offset="1"
         id="stop5367" />
    </linearGradient>
    <radialGradient
       inkscape:collect="always"
       xlink:href="#linearGradient5363"
       id="radialGradient5821"
       gradientUnits="userSpaceOnUse"
       gradientTransform="matrix(1,0,0,1.0384519,723.5349,-138.9542)"
       cx="-355.68161"
       cy="403.63623"
       fx="-355.68161"
       fy="403.63623"
       r="150.89131" />
    <radialGradient
       inkscape:collect="always"
       xlink:href="#linearGradient5363"
       id="radialGradient5823"
       gradientUnits="userSpaceOnUse"
       gradientTransform="matrix(1.0265219,0.01469751,-0.01481417,1.0346701,740.09762,-127.86689)"
       cx="-355.68161"
       cy="403.63623"
       fx="-355.68161"
       fy="403.63623"
       r="150.89131" />
    <radialGradient
       inkscape:collect="always"
       xlink:href="#linearGradient3919"
       id="radialGradient5825"
       gradientUnits="userSpaceOnUse"
       gradientTransform="matrix(1.0021103,0,0,0.54412179,524.77557,64.40716)"
       cx="-157.30972"
       cy="403.7309"
       fx="-157.30972"
       fy="403.7309"
       r="338.48221" />
    <linearGradient
       id="linearGradient3919"
       osb:paint="gradient">
      <stop
         style="stop-color:#000000;stop-opacity:0;"
         offset="0"
         id="stop3921" />
      <stop
         style="stop-color:#000000;stop-opacity:0;"
         offset="1"
         id="stop3923" />
    </linearGradient>
  </defs>
  <sodipodi:namedview
     id="base"
     pagecolor="#ffffff"
     bordercolor="#666666"
     borderopacity="1.0"
     inkscape:pageopacity="0.0"
     inkscape:pageshadow="2"
     inkscape:zoom="0.35"
     inkscape:cx="350"
     inkscape:cy="291.42857"
     inkscape:document-units="px"
     inkscape:current-layer="layer1"
     showgrid="false"
     inkscape:window-width="1600"
     inkscape:window-height="823"
     inkscape:window-x="0"
     inkscape:window-y="24"
     inkscape:window-maximized="1" />
  <metadata
     id="metadata3185">
    <rdf:RDF>
      <cc:Work
         rdf:about="">
        <dc:format>image/svg+xml</dc:format>
        <dc:type
           rdf:resource="http://purl.org/dc/dcmitype/StillImage" />
        <dc:title></dc:title>
      </cc:Work>
    </rdf:RDF>
  </metadata>
  <g
     inkscape:label="Capa 1"
     inkscape:groupmode="layer"
     id="layer1"
     transform="translate(0,-772.36218)">
    <g
       id="g5798"
       transform="matrix(0.55130285,0,0,0.49397001,-30.615567,763.47815)">
      <g
         transform="translate(27.595729,116.55024)"
         id="g5485">
        <path
           style="fill:#b1cbdb;fill-opacity:1;stroke:url(#radialGradient5815);stroke-width:0.6600731;stroke-miterlimit:4;stroke-opacity:1;stroke-dasharray:none"
           d="m 351.5862,431.62105 -10.63142,-5.26147 -2.0376,-6.09389 c -4.27708,-12.79156 -5.35819,-23.31323 -5.35819,-52.14786 0,-22.03903 0.30206,-28.45474 1.69744,-36.05442 3.83372,-20.87963 9.9505,-38.13313 23.42628,-66.07804 l 8.68274,-18.00551 0.98979,-12.03984 c 0.54438,-6.62192 0.73173,-16.20033 0.41635,-21.28536 l -0.57345,-9.24551 35.37533,-25.61271 c 19.45645,-14.08698 43.53046,-31.39952 53.49779,-38.47232 l 18.12244,-12.85963 7.76278,6.96214 c 4.26954,3.82918 16.48026,15.1099 27.13497,25.06827 10.6547,9.95838 24.81814,23.19603 31.47433,29.417 l 12.10215,11.31086 55.73529,111.48877 c 30.65441,61.31883 55.53601,111.68806 55.29246,111.93161 -0.479,0.479 -25.20686,-10.63744 -94.15268,-42.32646 l -44.05555,-20.24889 -8.63936,3.79825 c -7.42668,3.2651 -53.55778,24.47339 -133.86395,61.54256 -11.41757,5.27032 -20.98585,9.55801 -21.26285,9.52817 -0.27701,-0.0298 -5.28781,-2.42191 -11.13509,-5.31572 z"
           id="path3793"
           inkscape:connector-curvature="0" />
        <path
           style="fill:#d9e1e6;fill-opacity:1;stroke:url(#linearGradient5817);stroke-width:1.02515185;stroke-opacity:1"
           d="m 73.39869,419.22197 c 0,-0.62351 44.12733,-93.76627 79.72391,-168.27899 l 24.4731,-51.22848 43.26066,-32.4456 c 48.74117,-36.55596 53.02782,-39.57419 54.72138,-38.52923 0.65031,0.40125 20.64018,17.68027 44.42196,38.39783 23.78177,20.71755 43.97914,38.29802 44.88303,39.06768 1.29937,1.10647 1.9983,1.17818 3.33853,0.34257 1.5777,-0.98368 1.73754,-0.60338 2.30818,5.49145 0.3372,3.60157 0.17892,12.3727 -0.35172,19.49136 l -0.96481,12.94305 -8.10951,17.03815 c -13.78918,28.97132 -19.4942,44.67924 -22.80597,62.79306 -4.72087,25.82086 -3.87727,67.30722 1.79234,88.14582 1.00377,3.68927 1.70893,6.8169 1.56706,6.95029 -0.25648,0.24112 -17.53771,-7.99834 -86.25464,-41.1251 -19.77012,-9.53069 -37.74008,-17.92385 -39.93327,-18.65146 l -3.98759,-1.32294 -25.13297,11.28765 c -23.72056,10.65331 -100.70706,44.88357 -109.0821,48.50083 -2.12717,0.91874 -3.86757,1.42816 -3.86757,1.13206 z"
           id="path3795"
           inkscape:connector-curvature="0" />
        <g
           id="g5326"
           style="stroke:#ffcc00;stroke-opacity:1"
           transform="translate(725.01506,-124.25713)">
          <path
             sodipodi:nodetypes="ccccc"
             inkscape:connector-curvature="0"
             id="path5318"
             d="m -418.42787,268.16784 -1.33044,63.43716 -19.06965,63.43715 -22.17401,69.47878 -0.44348,50.34695"
             style="fill:none;stroke:#ffcc00;stroke-width:15.98235321;stroke-linecap:butt;stroke-linejoin:miter;stroke-miterlimit:4;stroke-opacity:1;stroke-dasharray:none" />
          <path
             inkscape:connector-curvature="0"
             id="path5320"
             d="m -429.2888,362.75053 -42.13061,-13.74788 -24.83489,11.53048"
             style="fill:none;stroke:#ffcc00;stroke-width:15;stroke-linecap:round;stroke-linejoin:miter;stroke-miterlimit:4;stroke-opacity:1;stroke-dasharray:none" />
          <path
             inkscape:connector-curvature="0"
             id="path5322"
             d="m -462.10633,468.74229 -38.97075,-19.51313 -116.437,5.76525"
             style="fill:none;stroke:#ffcc00;stroke-width:15.52803993;stroke-linecap:butt;stroke-linejoin:miter;stroke-miterlimit:4;stroke-opacity:1;stroke-dasharray:none" />
          <path
             inkscape:connector-curvature="0"
             id="path5324"
             d="m -601.65614,430.90004 156.6991,-174.43831"
             style="fill:none;stroke:#ffcc00;stroke-width:17.06679726;stroke-linecap:butt;stroke-linejoin:miter;stroke-miterlimit:4;stroke-opacity:1;stroke-dasharray:none" />
        </g>
        <g
           id="g5480">
          <path
             inkscape:transform-center-x="-2.2174008"
             inkscape:connector-curvature="0"
             id="path5275"
             d="m 467.76912,132.37617 49.47147,227.62586"
             style="fill:url(#radialGradient5819);fill-opacity:1;stroke:#000000;stroke-width:7.0079999;stroke-linecap:square;stroke-linejoin:miter;stroke-miterlimit:4;stroke-opacity:0.06666667;stroke-dasharray:none" />
          <path
             inkscape:transform-center-y="0.46944496"
             inkscape:transform-center-x="-2.1700808"
             inkscape:connector-curvature="0"
             id="path5275-5"
             d="m 362.54391,193.30001 1.64083,239.98588"
             style="fill:url(#radialGradient5821);fill-opacity:1;stroke:#000000;stroke-width:7.11328888;stroke-linecap:square;stroke-linejoin:miter;stroke-miterlimit:4;stroke-opacity:0.06666667;stroke-dasharray:none" />
          <path
             inkscape:transform-center-y="0.095747368"
             inkscape:transform-center-x="-2.2744309"
             inkscape:connector-curvature="0"
             id="path5275-9"
             d="m 216.56656,362.00734 60.57268,-231.3439"
             style="fill:url(#radialGradient5823);fill-opacity:1;stroke:#000000;stroke-width:7.19460249;stroke-linecap:square;stroke-linejoin:miter;stroke-miterlimit:4;stroke-opacity:0.06666667;stroke-dasharray:none" />
        </g>
        <path
           style="fill:#878787;fill-opacity:1;stroke:url(#radialGradient5825);stroke-width:0.71550673;stroke-miterlimit:4;stroke-opacity:1;stroke-dasharray:none"
           d="m 612.95246,424.87287 -92.4842,-42.97242 -23.83218,11.2847 c -44.1213,20.89175 -127.38992,60.49557 -130.08234,61.86913 l -2.66944,1.36185 -75.45664,-36.8497 -75.45663,-36.84971 -2.50528,1.0072 c -1.3779,0.55396 -42.88719,19.4276 -92.24287,41.94141 C 68.8672,448.17915 28.39984,466.50338 28.29542,466.38582 28.19099,466.26827 57.6726,403.5223 93.81009,326.95034 l 65.70453,-139.22174 57.1494,-43.79687 c 31.43218,-24.08827 57.34711,-43.7368 57.58873,-43.66338 0.24162,0.0735 20.46241,18.56934 44.93506,41.10203 l 44.49575,40.96853 54.46673,-40.8574 54.46672,-40.8574 3.31451,3.18368 c 1.82298,1.75102 23.12409,21.21327 47.33579,43.24943 24.21172,22.03617 44.39559,40.52413 44.85308,41.08436 0.45747,0.56023 27.47596,54.9715 60.04107,120.91394 71.15017,144.07491 78.42007,158.92298 77.77489,158.84792 -0.27483,-0.032 -42.11759,-19.39574 -92.98389,-43.03057 z m -170.59094,-32.4638 c 42.64509,-19.90115 77.892,-36.03931 78.32643,-35.86259 0.43443,0.17672 30.8826,14.20218 67.66257,31.16767 36.77996,16.9655 67.01211,30.70692 67.18255,30.53648 0.17043,-0.17044 -24.12434,-49.01363 -53.9884,-108.54041 L 547.2464,201.4797 509.81425,166.33032 c -20.58767,-19.33215 -37.83638,-35.1154 -38.33046,-35.07386 -0.49408,0.0415 -20.36981,14.19247 -44.16828,31.44653 -23.79848,17.25406 -47.82899,34.67635 -53.40116,38.71619 l -10.13119,7.34515 -43.91117,-38.33212 c -24.15115,-21.08267 -44.45317,-38.81081 -45.11561,-39.39586 -1.0938,-0.96602 -5.52664,2.19008 -48.24761,34.35133 l -47.04314,35.41508 -51.79945,108.27308 c -28.48969,59.55021 -51.63776,108.43479 -51.44014,108.6324 0.19761,0.19762 30.56292,-13.27201 67.47845,-29.93252 36.91554,-16.6605 67.92442,-30.58431 68.90864,-30.9418 1.5434,-0.56059 11.97708,4.327 75.87406,35.54265 40.74652,19.90594 74.59155,36.19796 75.21119,36.2045 0.61964,0.006 36.01805,-16.27086 78.66314,-36.172 l 0,0 z"
           id="path3905"
           inkscape:connector-curvature="0" />
      </g>
      <g
         style="fill:#ffcc00;fill-opacity:1"
         transform="matrix(0.75920935,0,0,0.75920935,199.80775,-6.347896)"
         id="g5748">
        <path
           style="fill:#ffcc00;fill-opacity:1"
           inkscape:connector-curvature="0"
           d="m 256,32 c -74,0 -134.2,58.7 -134.2,132.7 0,16.4 3.5,34.3 9.8,50.4 l -0.1,0 0.6,1.2 c 0.5,1.1 1,2.2 1.5,3.3 L 256,480 377.8,220.9 l 0.6,-1.2 c 0.5,-1.1 1.1,-2.2 1.6,-3.4 l 0.4,-1.1 c 6.5,-16.1 9.8,-33.1 9.8,-50.3 C 390.2,90.7 330,32 256,32 z m 0,174.9 c -25.9,0 -46.9,-21 -46.9,-46.9 0,-25.9 21,-46.9 46.9,-46.9 25.9,0 46.9,21 46.9,46.9 0,25.9 -21,46.9 -46.9,46.9 z"
           id="path5750" />
      </g>
    </g>
  </g>
</svg>
